<svg xmlns="http://www.w3.org/2000/svg" xmlns:xlink="http://www.w3.org/1999/xlink" style="vertical-align:-.255ex" width="2.019ex" height="2.134ex" viewBox="0 -809.3 869.5 918.9"><defs><path id="a" stroke-width="1" d="M65 0Q45 0 45 18q3 34 16 42 4 2 20 2 74 0 84 12 1 0 100 154t200 311 104 160q7 8 14 10t28 2 26-1 12-10q1-3 46-320l46-317 43-1h43q12-12 12-17l-4-16q-4-20-8-24t-21-5h-16q-13 0-47 1t-86 1q-72 0-110-1t-43-1q-23 0-23 17 3 37 16 43 4 2 44 2 39 0 39 1 0 5-7 58t-9 58v2H308l-37-57q-35-55-35-57t47-5h4q29 0 29-16 0-20-9-38-5-5-12-8l-33 1q-20 1-94 1-49 0-75-1T65 0zm472 372q-4 30-9 63t-7 51-3 18v1q-1 0-85-130l-85-131 103-1q104 0 104 1l-18 128z"/></defs><use fill="currentColor" stroke="currentColor" stroke-width="0" transform="scale(1 -1)" xlink:href="#a"/></svg>