<svg xmlns="http://www.w3.org/2000/svg" xmlns:xlink="http://www.w3.org/1999/xlink" style="vertical-align:-.255ex" width="2.832ex" height="2.009ex" viewBox="0 -755.5 1219.5 865.1"><defs><path id="a" stroke-width="1" d="M258 624h-27q-17 0-23 2t-9 13q4 39 17 45 4 2 131 2h126q1-1 5-4t6-5q3-4 51-264l49-260 24 34q23 34 64 94t89 129q174 253 182 261 6 7 19 15h204q35 0 44-3t9-15q-4-36-16-42-4-2-54-2h-49l-69-280Q960 64 960 63t44-1h27q32 0 32-18-3-37-17-42-4-2-12-2-4 0-44 1T875 2q-71 0-108-1t-42-1h-2q-16 0-20 15 4 39 17 45 4 2 53 2h49q139 556 139 557L754 318Q546 15 543 12 531 0 510 0h-15q-5 0-11 5t-7 14q0 1-56 296l-54 289-68-269Q234 72 234 68q0-6 68-6 32 0 32-16-2-38-17-44-4-2-11-2-5 0-39 1t-86 1q-56 0-85-1T63 0Q48 0 43 15q0 4 4 20 5 20 10 23t37 4q53 2 70 7l69 276q69 274 69 277 0 2-44 2z"/></defs><use fill="currentColor" stroke="currentColor" stroke-width="0" transform="scale(1 -1)" xlink:href="#a"/></svg>